<?xml version="1.0" encoding="UTF-8"?>
<svg id="Layer_2" data-name="Layer 2" xmlns="http://www.w3.org/2000/svg" viewBox="0 0 174.94 24.03">
  <defs>
    <style>
      .cls-1 {
        fill: #f2f3e9;
      }

      .cls-1, .cls-2, .cls-3 {
        stroke-width: 0px;
      }

      .cls-2 {
        fill: #5865f2;
      }

      .cls-3 {
        fill: #09bc8a;
      }
    </style>
  </defs>
  <g id="Layer_1-2" data-name="Layer 1">
    <g>
      <path class="cls-3" d="m22.17,4.6l-3.05,2.9c-2.07-2.19-4.4-3.28-6.99-3.28-2.19,0-4.03.75-5.52,2.24-1.5,1.5-2.25,3.34-2.25,5.53,0,1.53.33,2.88.99,4.06.66,1.18,1.6,2.11,2.81,2.79s2.56,1.01,4.04,1.01c1.26,0,2.42-.24,3.47-.71,1.05-.47,2.2-1.33,3.45-2.58l2.95,3.08c-1.69,1.65-3.29,2.79-4.79,3.43-1.5.64-3.22.95-5.15.95-3.56,0-6.47-1.13-8.73-3.38C1.13,18.39,0,15.5,0,11.98c0-2.28.52-4.31,1.55-6.08,1.03-1.78,2.51-3.2,4.43-4.28,1.92-1.08,3.99-1.62,6.21-1.62,1.89,0,3.7.4,5.45,1.2,1.75.8,3.25,1.93,4.52,3.4Z"/>
      <path class="cls-3" d="m24.35.57h4.68l4.27,8.23L37.55.57h4.62l-6.7,12.98v9.91h-4.39v-9.91L24.35.57Z"/>
      <path class="cls-3" d="m45.72.57h4.62c2.5,0,4.3.23,5.41.69,1.1.46,1.97,1.21,2.61,2.24.64,1.03.96,2.27.96,3.71,0,1.6-.42,2.92-1.25,3.98-.83,1.06-1.97,1.79-3.4,2.21-.84.24-2.37.36-4.59.36v9.69h-4.36V.57Zm4.36,8.95h1.38c1.09,0,1.85-.08,2.27-.23s.76-.41,1-.77c.24-.36.37-.79.37-1.3,0-.89-.34-1.53-1.03-1.94-.5-.3-1.42-.45-2.77-.45h-1.23v4.7Z"/>
      <path class="cls-3" d="m63.87.57h4.62c2.53,0,4.33.23,5.4.68,1.07.45,1.93,1.2,2.59,2.25.65,1.05.98,2.29.98,3.72,0,1.5-.36,2.76-1.08,3.77-.72,1.01-1.81,1.78-3.26,2.3l5.42,10.17h-4.76l-5.15-9.69h-.4v9.69h-4.36V.57Zm4.36,8.95h1.37c1.38,0,2.34-.18,2.86-.55.52-.36.78-.97.78-1.81,0-.5-.13-.93-.39-1.3-.26-.37-.61-.63-1.04-.8-.43-.16-1.23-.24-2.39-.24h-1.19v4.7Z"/>
      <path class="cls-3" d="m82.07.57h12.49v4.26h-8.17v4.14h8.17v4.19h-8.17v6.02h8.17v4.28h-12.49V.57Z"/>
      <path class="cls-3" d="m110.64,3.69l-3.23,2.85c-1.13-1.58-2.29-2.36-3.46-2.36-.57,0-1.04.15-1.4.46s-.55.65-.55,1.03.13.75.39,1.09c.35.46,1.42,1.44,3.19,2.94,1.66,1.39,2.67,2.26,3.02,2.63.88.89,1.51,1.74,1.88,2.56.37.81.55,1.7.55,2.67,0,1.88-.65,3.43-1.95,4.65-1.3,1.22-2.99,1.83-5.08,1.83-1.63,0-3.05-.4-4.26-1.2-1.21-.8-2.24-2.05-3.11-3.76l3.66-2.21c1.1,2.02,2.37,3.03,3.8,3.03.75,0,1.38-.22,1.88-.66s.76-.94.76-1.51c0-.52-.19-1.04-.58-1.56s-1.23-1.31-2.54-2.38c-2.49-2.03-4.1-3.6-4.83-4.71-.73-1.1-1.09-2.21-1.09-3.31,0-1.59.6-2.95,1.81-4.08,1.21-1.14,2.7-1.7,4.48-1.7,1.14,0,2.23.26,3.26.79,1.03.53,2.15,1.49,3.36,2.89Z"/>
      <path class="cls-3" d="m127.2,3.69l-3.23,2.85c-1.13-1.58-2.29-2.36-3.46-2.36-.57,0-1.04.15-1.4.46s-.55.65-.55,1.03.13.75.39,1.09c.35.46,1.42,1.44,3.19,2.94,1.66,1.39,2.67,2.26,3.02,2.63.88.89,1.51,1.74,1.88,2.56.37.81.55,1.7.55,2.67,0,1.88-.65,3.43-1.95,4.65-1.3,1.22-2.99,1.83-5.08,1.83-1.63,0-3.05-.4-4.26-1.2-1.21-.8-2.24-2.05-3.11-3.76l3.66-2.21c1.1,2.02,2.37,3.03,3.8,3.03.75,0,1.38-.22,1.88-.66s.76-.94.76-1.51c0-.52-.19-1.04-.58-1.56s-1.23-1.31-2.54-2.38c-2.49-2.03-4.1-3.6-4.83-4.71-.73-1.1-1.09-2.21-1.09-3.31,0-1.59.6-2.95,1.81-4.08,1.21-1.14,2.7-1.7,4.48-1.7,1.14,0,2.23.26,3.26.79,1.03.53,2.15,1.49,3.36,2.89Z"/>
    </g>
    <g>
      <rect class="cls-2" x="138.18" y=".6" width="36.77" height="20.65" rx="2.18" ry="2.18"/>
      <g>
        <path class="cls-1" d="m144.7,6.51c.54-.11,1.63-.19,2.65-.19,1.25,0,2.02.12,2.68.51.63.34,1.09.96,1.09,1.78s-.47,1.56-1.5,1.94v.03c1.04.28,1.81,1.06,1.81,2.24,0,.82-.38,1.47-.94,1.93-.66.53-1.77.82-3.57.82-1.01,0-1.77-.07-2.22-.13V6.51Zm2.03,3.48h.67c1.08,0,1.66-.45,1.66-1.12s-.53-1.05-1.46-1.05c-.44,0-.7.03-.88.05v2.12Zm0,4.03c.2.03.44.03.8.03.93,0,1.75-.35,1.75-1.31s-.82-1.28-1.85-1.28h-.7v2.56Z"/>
        <path class="cls-1" d="m161.16,10.84c0,2.98-1.81,4.78-4.46,4.78s-4.27-2.03-4.27-4.62c0-2.72,1.74-4.76,4.42-4.76s4.31,2.09,4.31,4.59Zm-6.56.12c0,1.78.84,3.03,2.21,3.03s2.18-1.32,2.18-3.09c0-1.63-.78-3.03-2.2-3.03s-2.2,1.32-2.2,3.09Z"/>
        <path class="cls-1" d="m163.88,8.11h-2.44v-1.72h6.98v1.72h-2.48v7.36h-2.06v-7.36Z"/>
      </g>
    </g>
  </g>
</svg>